<svg width="101" height="101" viewBox="0 0 101 101" fill="none" xmlns="http://www.w3.org/2000/svg">
<path fill-rule="evenodd" clip-rule="evenodd" d="M10.0634 67.2115C12.1048 72.1772 15.1468 76.7169 19.1905 80.8363C19.3441 81.028 19.4989 81.1827 19.6526 81.297C21.6167 83.2597 23.6963 85.0112 25.8914 86.5502C33.0544 91.5921 41.2572 94.1136 50.4999 94.1136C55.3141 94.1136 59.858 93.4198 64.1327 92.0343C68.0227 90.8036 71.6805 88.9759 75.1084 86.5502C77.3035 85.0493 79.3831 83.299 81.3471 81.297C85.6218 77.0633 88.8186 72.3689 90.9364 67.2115C93.0541 62.0934 94.1135 56.5123 94.1135 50.4706C94.1135 38.4644 89.8573 28.1878 81.3471 19.6453C80.2299 18.5669 79.0942 17.5278 77.9389 16.528C70.1208 10.0995 60.9741 6.88637 50.4999 6.88637C43.799 6.88637 37.6376 8.2141 32.0146 10.8696C27.5088 12.9858 23.3878 15.9115 19.6526 19.6453C11.1413 28.1878 6.88623 38.4644 6.88623 50.4706C6.88623 56.5123 7.94567 62.0934 10.0634 67.2115Z" fill="#9B006C"/>
<path fill-rule="evenodd" clip-rule="evenodd" d="M75.6948 86.0745C77.8858 84.5548 79.518 82.9777 81.4783 80.9506C83.7845 78.6513 85.5746 76.0263 87.227 73.4545H13.7725C15.3488 75.8311 16.5976 77.8831 18.6732 80.0656C18.8266 80.2596 18.9811 80.4163 19.1345 80.532C21.0948 82.5193 23.1821 84.7796 25.373 86.3379L75.6948 86.0745Z" fill="black" fill-opacity="0.3"/>
<path fill-rule="evenodd" clip-rule="evenodd" d="M30.9888 25.4155V34.4624L46.1381 48.2045L49.3524 46.1451V21.8068L30.9888 25.4155ZM30.9888 61.9773V79.1932H31.1656L49.3524 75.1996V55.0909L31.1067 61.9773H30.9888ZM39.0229 51.2373L30.9888 43.1104V53.6482L39.0229 51.2373ZM88.3751 22.9546L68.8638 25.6529V45.8521L88.3751 39.9994V22.9546ZM88.3751 48.2045L68.8638 55.5406V79.1932L88.3751 76.4337V48.2045Z" fill="#CCCCCC"/>
<path fill-rule="evenodd" clip-rule="evenodd" d="M30.9884 25.4155L25.2498 24.1023L30.9884 34.4624V25.4155ZM11.4771 21.8068V57.3864L30.9884 53.6482V43.1104L15.8129 22.4312L11.4771 21.8068ZM11.4771 65.7085V74.1284L30.9884 79.1932V61.9773L11.4771 65.7085ZM49.3521 21.8068V46.1451L68.8634 45.8521V24.5989L49.3521 21.8068ZM68.6876 54.697L49.3521 55.0909V75.1996L68.8634 79.1932V54.639L68.6876 54.697Z" fill="#90A6A6"/>
<path fill-rule="evenodd" clip-rule="evenodd" d="M30.9888 61.9773H31.1067L49.3524 55.0909V46.1451L46.1381 48.1497L30.9888 34.4624V43.1104L39.0055 51.2373L30.9888 53.6482V61.9773ZM68.8638 45.8521V56.2386L88.3751 48.8538V40.1705L68.8638 45.8521Z" fill="#00CCBE"/>
<path fill-rule="evenodd" clip-rule="evenodd" d="M25.2498 24.1023L15.813 22.4312L30.9885 43.1104V34.4624L25.2498 24.1023ZM11.4771 65.7085L30.9884 61.9773V53.6483L11.4771 57.3864V65.7085ZM49.3521 55.0909H68.6876L68.8634 55.0353V45.8521L49.3521 46.1451V55.0909Z" fill="#007E8A"/>
<path fill-rule="evenodd" clip-rule="evenodd" d="M65.7648 30.9886H65.8222V31.046H65.4205V30.9886H65.7648ZM68.0029 43.6136H68.0603V43.671C67.9065 43.671 67.7929 43.6515 67.716 43.6136H68.0029ZM61.0018 37.3585C60.9249 37.1668 60.8675 36.9568 60.8296 36.7273H60.887C60.9249 36.9189 60.9639 37.129 61.0018 37.3585ZM73.512 38.2193V38.1619C73.512 38.085 73.4925 37.9898 73.4546 37.875H73.512V37.9324C73.5499 38.0472 73.5499 38.1424 73.512 38.2193ZM73.5694 37.0142V37.0716C73.5315 36.9568 73.4925 36.842 73.4546 36.7273C73.5315 36.8042 73.5694 36.8994 73.5694 37.0142ZM48.2437 36.0639V36.2956C48.3376 36.4693 48.3376 36.5654 48.3003 36.643C48.3003 36.7971 48.3195 36.9326 48.3568 37.0484C48.4326 37.4538 48.488 37.821 48.5265 38.2067C48.9982 40.0981 49.6384 41.7579 50.5059 43.1872C51.335 44.5771 52.2592 45.8894 53.2772 47.1253C53.7669 47.7426 54.2759 48.3611 54.8042 48.9785C55.8595 50.2143 56.8967 51.4305 57.9148 52.627C58.9701 53.8235 60.0266 55.0211 61.0819 56.2176C62.1372 57.4141 63.3622 58.9013 64.758 60.6769C65.7376 61.9127 68.4907 65.406 73.0152 71.1591C77.1245 62.1247 79.4806 57.0284 80.0847 55.8701C80.6875 54.6736 81.3097 53.4771 81.951 52.2795C82.5912 51.083 83.1952 49.8657 83.7608 48.631C84.2879 47.3569 84.798 46.0631 85.2878 44.7508C85.7776 43.4767 86.0423 42.0092 86.0796 40.3495C86.0796 39.7309 86.0604 39.0951 86.023 38.4383C85.9665 38.2831 85.9472 38.1488 85.9099 38.0329C85.9291 37.7434 85.8907 37.5117 85.8534 37.2801C85.8149 37.1642 85.7776 37.0484 85.7403 36.9326C85.5514 36.0836 85.307 35.2913 85.005 34.5582C84.401 32.859 83.6104 31.373 82.6297 30.0989C81.6875 28.7866 80.631 27.6086 79.4626 26.5662C78.2941 25.4855 76.9933 24.5392 75.5602 23.7285C74.1655 22.9559 72.6385 22.3003 70.9792 21.7594C69.3198 21.2185 67.4919 20.871 65.4932 20.717C65.3801 20.717 65.2862 20.6973 65.2105 20.6591H64.9277C64.6641 20.6973 64.4379 20.6973 64.249 20.6591H63.8531H63.5703H63.1745C62.4585 20.6973 61.7606 20.7749 61.0819 20.8907C59.3094 21.1606 57.7451 21.6251 56.3877 22.2806C55.0677 22.898 53.8993 23.652 52.8813 24.5392C51.8633 25.4276 50.9957 26.4307 50.2797 27.5507C49.5637 28.6708 49.0163 29.9251 48.6396 31.3151C48.2629 32.7432 48.1306 34.3265 48.2437 36.0639Z" fill="black" fill-opacity="0.2"/>
<path fill-rule="evenodd" clip-rule="evenodd" d="M65.4776 27.5455V28.2903V28.3489C65.4397 28.0814 65.4202 27.8129 65.4202 27.5455H65.4776ZM73.4543 35.5795H73.7986H73.856V35.6381C73.6643 35.6381 73.53 35.6186 73.4543 35.5795ZM81.5458 27.8886V27.9472C81.5079 27.8324 81.4884 27.6981 81.4884 27.5455C81.5262 27.6224 81.5458 27.7371 81.5458 27.8886ZM81.5458 27.5455C81.5458 27.6981 81.5262 27.8324 81.4884 27.9472V27.8898V27.5455H81.5458ZM72.7082 20.7165H72.3065V20.6591H72.6509H72.7082V20.7165ZM64.0753 8.95604C62.3714 9.72297 60.8429 10.6612 59.4875 11.7731C58.132 12.885 56.9125 14.1302 55.8288 15.51C54.7835 16.9277 53.8926 18.5179 53.1574 20.2817C52.4222 22.0444 51.9378 24.0187 51.7055 26.2033V26.4908C51.7055 26.7012 51.6858 26.8162 51.6475 26.8932V27.4106V28.7904C51.7636 31.2234 52.1701 33.2942 52.867 35.0569C53.5639 36.7816 54.3769 38.4293 55.3061 40.0011C55.7707 40.7681 56.2353 41.5338 56.6999 42.3008C57.6674 43.8714 58.6361 45.4053 59.6036 46.9C60.5711 48.3568 61.5398 49.8321 62.5073 51.3268C63.5132 52.8204 64.6561 54.6992 65.9337 56.9609C66.7851 58.4557 69.2637 62.8055 73.3672 70.0114C80.0259 58.7052 83.8205 52.3421 84.7497 50.9244C85.7172 49.4296 86.6859 47.9337 87.6534 46.4401C88.6592 44.9453 89.6082 43.4126 90.499 41.8408C91.3887 40.269 92.2598 38.6788 93.1124 37.0691C93.9637 35.4214 94.5642 33.561 94.9127 31.4925C95.0671 30.7255 95.1635 29.9402 95.203 29.1353V28.6179L95.2611 27.6981C95.2216 27.5451 95.203 27.4106 95.203 27.2956C95.1635 26.2229 95.0474 25.2064 94.8546 24.2486C94.5061 22.141 93.8859 20.2817 92.9962 18.672C92.1437 17.0623 91.1564 15.587 90.0344 14.2452C88.873 12.9425 87.557 11.7926 86.0854 10.7957C84.6138 9.79886 82.968 8.95604 81.1491 8.265C79.3291 7.6142 77.2779 7.17382 74.9932 6.94386C74.819 6.9818 74.7215 6.9818 74.6448 6.94386H74.3544C74.0246 6.94386 73.7737 6.92431 73.5414 6.88637H73.0768L72.7284 6.94386H72.2638C71.4112 6.9818 70.5796 7.07724 69.7666 7.23131C67.6376 7.57626 65.7397 8.15117 64.0753 8.95604Z" fill="#FB5058"/>
<circle cx="73.5" cy="26.5" r="9.5" fill="white"/>
</svg>
