<?xml version="1.0" encoding="utf-8"?>
<!-- Generator: Adobe Illustrator 26.0.3, SVG Export Plug-In . SVG Version: 6.00 Build 0)  -->
<svg version="1.1" id="Layer_1" xmlns="http://www.w3.org/2000/svg" xmlns:xlink="http://www.w3.org/1999/xlink" x="0px" y="0px"
	 viewBox="0 0 785.2 293.6" style="enable-background:new 0 0 785.2 293.6;" xml:space="preserve">
<style type="text/css">
	.st0{fill:#FFFFFF;}
</style>
<g>
	<path class="st0" d="M125.8,278.6h4.4c4,0,5.2-1.3,5.2-4.1c0-2.3-1.5-3.6-4.8-3.6h-4.8V278.6z M116.5,292.9v-2.8h2.6
		c1.2,0,1.5-0.4,1.5-1.3v-16.5c0-1-0.4-1.3-1.5-1.3h-2.6v-2.8h16.2c5.4,0,7.9,2.1,7.9,6.2c0,3.8-3.2,5.7-7,6v0.1
		c3.9,0.5,4.8,2.2,4.8,5.1c0,4,0.9,4.5,1.5,4.5c0.9,0,1.3-0.8,1.3-3V286h2.5v1.2c0,4.8-2.1,6.5-5.1,6.5c-3.7,0-4.8-2-4.8-5.1
		c0-6-1.3-7.3-5.7-7.3h-2.2v7.5c0,1,0.4,1.3,1.5,1.3h2.7v2.8H116.5z"/>
	<path class="st0" d="M156.5,282.2c0-2.3-0.7-4.7-3.4-4.7c-2.5,0-3.5,2.3-3.6,4.7H156.5z M149.6,284.6c-0.1,2.9,0.8,6,4.3,6
		c2.7,0,4-1.4,4.5-4h3.1c-0.5,4.2-3.1,6.7-8,6.7c-5.8,0-8.8-3.2-8.8-9.3c0-5.4,3.5-9.3,8.6-9.3c6.1,0,8.7,5.5,8.3,9.7H149.6z"/>
	<path class="st0" d="M173.7,283.7l-3.9,1.8c-1.1,0.5-2.2,1.1-2.2,2.8c0,1.6,0.7,2.3,2.2,2.3c2.5,0,3.9-2.2,3.9-4.5V283.7z
		 M182.3,286.4v1.1c0,4.2-1.7,5.9-4.8,5.9c-1.9,0-3.5-0.8-3.8-2.8c-1.4,2.1-3.8,2.8-6.1,2.8c-2.9,0-5.2-1.4-5.2-4.7
		c0-7.2,11.2-3.7,11.2-9c0-2.4-2-2.8-4-2.8c-1,0-2.8,0.3-3.5,1.2c1.4-0.2,2.5,0.4,2.5,1.9c0,1.7-1.2,2.2-2.6,2.2
		c-1.6,0-2.7-1.2-2.7-2.8c0-3.8,4.5-4.6,7.5-4.6c5,0,7.2,2.3,7.2,5.4v9.1c0,0.8,0.3,1.2,0.9,1.2c0.6,0,1-0.5,1-2.8v-1.4H182.3z"/>
	<path class="st0" d="M182.8,292.9v-2.5h1.8c1,0,1.5-0.4,1.5-1.5v-16.8c0-1.1-0.4-1.5-1.5-1.5h-1.8v-2.5h7.7v20.8
		c0,1.1,0.5,1.5,1.5,1.5h1.7v2.5H182.8z"/>
	<path class="st0" d="M219.9,267.8h2.6V278h-2.8c-0.5-4.1-2.6-7.4-7-7.4c-5.5,0-6.9,5-6.9,9.9c0,4.8,1.5,9.9,6.9,9.9
		c4.2,0,6.3-3,6.7-6.9h3.2c-0.4,6.5-4.2,10.1-10.7,10.1c-7.8,0-11.9-5.5-11.9-13.4c0-7,4.6-12.8,12.4-12.8c2.4,0,5.1,1.2,6.8,2.7
		L219.9,267.8z"/>
	<path class="st0" d="M235.2,283.7l-4,1.8c-1.1,0.5-2.2,1.1-2.2,2.8c0,1.6,0.7,2.3,2.2,2.3c2.5,0,4-2.2,4-4.5V283.7z M243.9,286.4
		v1.1c0,4.2-1.7,5.9-4.8,5.9c-1.9,0-3.5-0.8-3.8-2.8c-1.4,2.1-3.8,2.8-6.1,2.8c-2.9,0-5.2-1.4-5.2-4.7c0-7.2,11.2-3.7,11.2-9
		c0-2.4-2-2.8-4-2.8c-1,0-2.8,0.3-3.5,1.2c1.4-0.2,2.5,0.4,2.5,1.9c0,1.7-1.2,2.2-2.6,2.2c-1.6,0-2.7-1.2-2.7-2.8
		c0-3.8,4.5-4.6,7.5-4.6c5,0,7.2,2.3,7.2,5.4v9.1c0,0.8,0.3,1.2,0.9,1.2c0.6,0,1-0.5,1-2.8v-1.4H243.9z"/>
	<path class="st0" d="M244.4,292.9v-2.5h1.8c1,0,1.5-0.4,1.5-1.5v-16.8c0-1.1-0.4-1.5-1.5-1.5h-1.8v-2.5h7.7v20.8
		c0,1.1,0.4,1.5,1.5,1.5h1.7v2.5H244.4z"/>
	<path class="st0" d="M261.1,267.7c1.5,0,2.7,1.2,2.7,2.7c0,1.5-1.2,2.7-2.7,2.7c-1.5,0-2.7-1.2-2.7-2.7
		C258.4,268.9,259.6,267.7,261.1,267.7 M256.2,292.9v-2.5h1.7c1.1,0,1.5-0.4,1.5-1.5v-9.5c0-1.1-0.4-1.5-1.5-1.5h-1.7v-2.5h7.6v13.5
		c0,1.1,0.4,1.5,1.5,1.5h1.8v2.5H256.2z"/>
	<path class="st0" d="M267.6,275.5h3.5v-1c0-4.8,2.5-7,6.4-7c2.4,0,5.2,1.4,5.2,4.1c0,1.5-0.9,2.6-2.4,2.6c-1.4,0-2.4-0.9-2.4-2.2
		c0-1.2,0.8-1.9,1.9-2.1c0,0-0.1-0.1-0.1-0.1c-0.5-0.3-1.2-0.5-1.8-0.5c-1.9,0-2.5,1.3-2.5,3v3.2h3.8v2.5h-3.8v11
		c0,1.1,0.4,1.5,1.5,1.5h2.3v2.5h-11.7v-2.5h2c1,0,1.5-0.4,1.5-1.5v-11h-3.5V275.5z"/>
	<path class="st0" d="M290.2,291c3,0,4.6-2.3,4.6-6.8c0-4.5-1.6-6.8-4.6-6.8c-3,0-4.6,2.4-4.6,6.8C285.6,288.6,287.2,291,290.2,291
		 M290.2,274.9c5.6,0,9.6,3.4,9.6,9.3c0,5.9-4,9.3-9.6,9.3c-5.6,0-9.6-3.4-9.6-9.3C280.6,278.2,284.6,274.9,290.2,274.9"/>
	<path class="st0" d="M308.2,278.3L308.2,278.3c1.6-2.2,2.7-3.4,4.7-3.4c2.4,0,4.5,1.4,4.5,4.1c0,1.7-1,3.1-2.8,3.1
		c-1.5,0-2.6-0.9-2.6-2.4c0-1.4,1.1-2.2,2.5-2.2c-0.4-0.5-1-0.5-1.6-0.5c-3.1,0-4.6,3.1-4.6,5.7v6.2c0,1.1,0.4,1.5,1.5,1.5h2.3v2.5
		h-11.8v-2.5h2.1c1,0,1.5-0.4,1.5-1.5v-9.5c0-1.1-0.4-1.5-1.5-1.5h-2.1v-2.5h7.9V278.3z"/>
	<path class="st0" d="M326.1,278.7L326.1,278.7c1.6-2.3,3.7-3.8,6.6-3.8c3.3,0,5.3,2,5.3,6v8.1c0,1.1,0.5,1.5,2.2,1.5h1.3v2.5h-10.9
		v-2.5h0.9c1.6,0,2-0.4,2-1.5v-7.8c0-2.8-1.5-3.4-3.3-3.4c-1.8,0-4.2,1.9-4.2,4.3v6.9c0,1.1,0.4,1.5,1.5,1.5h1.5v2.5h-11v-2.5h2.1
		c1,0,1.5-0.4,1.5-1.5v-9c0-1.6-0.4-2-2.4-2H318v-2.5h8V278.7z"/>
	<path class="st0" d="M347.4,267.7c1.5,0,2.7,1.2,2.7,2.7c0,1.5-1.2,2.7-2.7,2.7c-1.4,0-2.7-1.2-2.7-2.7
		C344.7,268.9,345.9,267.7,347.4,267.7 M342.5,292.9v-2.5h1.7c1,0,1.5-0.4,1.5-1.5v-9.5c0-1.1-0.4-1.5-1.5-1.5h-1.7v-2.5h7.6v13.5
		c0,1.1,0.5,1.5,1.5,1.5h1.8v2.5H342.5z"/>
	<path class="st0" d="M365.2,283.7l-4,1.8c-1.1,0.5-2.2,1.1-2.2,2.8c0,1.6,0.7,2.3,2.2,2.3c2.5,0,4-2.2,4-4.5V283.7z M373.9,286.4
		v1.1c0,4.2-1.7,5.9-4.8,5.9c-1.9,0-3.5-0.8-3.8-2.8c-1.4,2.1-3.8,2.8-6.1,2.8c-2.9,0-5.2-1.4-5.2-4.7c0-7.2,11.2-3.7,11.2-9
		c0-2.4-2-2.8-4-2.8c-1,0-2.8,0.3-3.5,1.2c1.4-0.2,2.5,0.4,2.5,1.9c0,1.7-1.2,2.2-2.6,2.2c-1.6,0-2.7-1.2-2.7-2.8
		c0-3.8,4.5-4.6,7.5-4.6c5,0,7.2,2.3,7.2,5.4v9.1c0,0.8,0.3,1.2,0.9,1.2c0.6,0,1-0.5,1-2.8v-1.4H373.9z"/>
	<path class="st0" d="M592.4,268.2v10.2h-2.8v-1.7c0-3.9-2.1-5.7-6.2-5.7v17.8c0,1,0.4,1.3,1.5,1.3h2.8v2.8h-13.9v-2.8h2.8
		c1.2,0,1.5-0.4,1.5-1.3v-17.8c-4.1,0-6.2,1.8-6.2,5.7v1.7h-2.8v-10.2H592.4z"/>
	<path class="st0" d="M604.5,283.7l-3.9,1.8c-1.1,0.5-2.2,1.1-2.2,2.8c0,1.6,0.7,2.3,2.2,2.3c2.5,0,3.9-2.2,3.9-4.5V283.7z
		 M613.2,286.4v1.1c0,4.2-1.7,5.9-4.8,5.9c-1.9,0-3.5-0.8-3.8-2.8c-1.4,2.1-3.8,2.8-6.1,2.8c-2.9,0-5.2-1.4-5.2-4.7
		c0-7.2,11.2-3.7,11.2-9c0-2.4-2-2.8-4-2.8c-1.1,0-2.8,0.3-3.5,1.2c1.4-0.2,2.5,0.4,2.5,1.9c0,1.7-1.2,2.2-2.6,2.2
		c-1.6,0-2.7-1.2-2.7-2.8c0-3.8,4.5-4.6,7.5-4.6c5,0,7.2,2.3,7.2,5.4v9.1c0,0.8,0.3,1.2,0.9,1.2c0.6,0,1-0.5,1-2.8v-1.4H613.2z"/>
	<path class="st0" d="M630.7,285.7c-0.3,5-2.9,7.7-8,7.7c-5.7,0-8.8-3.3-8.8-9.3c0-5.5,4.4-9.2,9.2-9.2c4.3,0,7.7,2.3,7.7,5.5
		c0,1.6-1.1,3.1-2.7,3.1c-1.3,0-2.9-0.7-2.9-2.2c0-1.5,0.7-2.3,2.2-2.4c-0.8-1.1-2.1-1.5-3.5-1.5c-3.9,0-5,3.7-5,6.5
		c0,2.8,0.9,6.5,4.8,6.5c2.2,0,3.8-1.9,4.1-4.6H630.7z"/>
	<path class="st0" d="M641.5,291c3,0,4.6-2.3,4.6-6.8c0-4.5-1.6-6.8-4.6-6.8c-3,0-4.6,2.4-4.6,6.8C636.9,288.6,638.4,291,641.5,291
		 M641.5,274.9c5.6,0,9.6,3.4,9.6,9.3c0,5.9-4,9.3-9.6,9.3c-5.6,0-9.6-3.4-9.6-9.3C631.9,278.2,635.9,274.9,641.5,274.9"/>
	<path class="st0" d="M655.2,286.1c0.4,1.6,1.1,2.9,2.2,3.7c1.1,0.8,2.5,1.2,4.1,1.2c1.3,0,2.9-0.7,2.9-2.2c0-3.6-11.7-1.6-11.7-8.2
		c0-3.7,3.5-5.6,6.8-5.6c2,0,3.9,0.7,5.5,1.8l0.7-1.3h2v6.2h-2.4c-0.4-1.4-1.1-2.4-2-3.1c-0.9-0.7-2.1-1-3.5-1c-1.2,0-2.8,0.5-2.8,2
		c0,2.9,11.7,1.5,11.7,8.4c0,3.9-3.3,5.5-6.8,5.5c-2.2,0-4.5-0.4-6.2-1.9l-0.7,1.3h-2.5v-6.8H655.2z"/>
	<path class="st0" d="M548.7,272.6c0-1.4-0.9-2.2-2.3-2.2c-1.5,0-2.3,1-2.3,2.5c0,1.2,0.7,2.5,1.4,3.5
		C547,275.7,548.7,274.4,548.7,272.6 M544.4,290.1c1.3,0,2.5-0.2,3.7-0.9c-2.1-2.5-3.8-5.3-5.4-8.1c-1.4,0.9-2.5,2.1-2.5,4.1
		C540.1,288,541.9,290.1,544.4,290.1 M551.5,277.5h11.9v2.8h-0.8c-2.2,0-3,0.4-3.7,1.4l-4.8,6.8c0.8,0.9,1.5,1.4,2.8,1.4
		c3.1,0,3.7-3,3.7-5.4h2.8c0,5.2-1.2,9.2-7.2,9.2c-2.1,0-4.2-0.6-5.9-1.9c-2.4,1.3-4.6,1.9-7,1.9c-6,0-8.6-3.5-8.6-7.3
		c0-3.9,1.2-5.4,6.3-8.1c-0.7-0.9-1.1-2.8-1.1-4.3c0-4,2.6-6.5,6.6-6.5c2.9,0,5.3,2,5.3,5c0,3.1-2.4,5.2-4.8,6.6
		c0.8,1.8,3.5,5.7,4.9,7c0.9-0.9,2.8-3.3,2.8-4.4c0-0.9-0.4-1.3-1.9-1.3h-1.5V277.5z"/>
	<path class="st0" d="M389.9,290.1h4.2c3,0,5.5-0.6,5.5-4.3c0-3.7-2.6-4.4-5.5-4.4h-4.2V290.1z M389.9,278.7h3.6
		c2.9,0,5.3-0.5,5.3-3.8c0-3.4-2.3-3.9-5.3-3.9h-3.6V278.7z M380.5,290.1h2.7c1.2,0,1.5-0.4,1.5-1.3v-16.5c0-1-0.4-1.3-1.5-1.3h-2.7
		v-2.8h13.8c7.3,0,9.7,2.3,9.7,6.1c0,3.3-2.2,5-5.2,5.4v0.1c3.1,0.7,6.1,2,6.1,6.2c0,4-2.2,6.9-8.3,6.9h-16V290.1z"/>
	<path class="st0" d="M421.9,292.9V290h-0.1c-1.5,2.7-3.8,3.5-6.3,3.5c-3.5,0-5.5-1.8-5.5-5.2v-8.8c0-1.1-0.4-1.5-1.5-1.5h-1.9v-2.5
		h7.8v12.4c0,1.6,1,2.7,2.9,2.7c3.2,0,4.6-3,4.6-4.8v-6.3c0-1-0.6-1.5-1.8-1.5h-2v-2.5h8.2v13.5c0,1.1,0.4,1.5,2.1,1.5h1.5v2.5
		H421.9z"/>
	<path class="st0" d="M438.7,278.3L438.7,278.3c1.6-2.2,2.7-3.4,4.7-3.4c2.4,0,4.5,1.4,4.5,4.1c0,1.7-1,3.1-2.8,3.1
		c-1.5,0-2.6-0.9-2.6-2.4c0-1.4,1.1-2.2,2.5-2.2c-0.4-0.5-1-0.5-1.6-0.5c-3.1,0-4.6,3.1-4.6,5.7v6.2c0,1.1,0.5,1.5,1.5,1.5h2.3v2.5
		h-11.8v-2.5h2c1,0,1.5-0.4,1.5-1.5v-9.5c0-1.1-0.4-1.5-1.5-1.5h-2v-2.5h7.9V278.3z"/>
	<path class="st0" d="M456.5,278.3L456.5,278.3c1.6-2.2,2.7-3.4,4.7-3.4c2.4,0,4.5,1.4,4.5,4.1c0,1.7-1,3.1-2.8,3.1
		c-1.5,0-2.6-0.9-2.6-2.4c0-1.4,1.1-2.2,2.4-2.2c-0.4-0.5-1-0.5-1.6-0.5c-3.1,0-4.6,3.1-4.6,5.7v6.2c0,1.1,0.4,1.5,1.5,1.5h2.4v2.5
		h-11.8v-2.5h2c1,0,1.5-0.4,1.5-1.5v-9.5c0-1.1-0.5-1.5-1.5-1.5h-2v-2.5h7.9V278.3z"/>
	<path class="st0" d="M471.5,267.7c1.5,0,2.7,1.2,2.7,2.7c0,1.5-1.2,2.7-2.7,2.7c-1.5,0-2.7-1.2-2.7-2.7
		C468.8,268.9,470.1,267.7,471.5,267.7 M466.6,292.9v-2.5h1.7c1,0,1.5-0.4,1.5-1.5v-9.5c0-1.1-0.4-1.5-1.5-1.5h-1.7v-2.5h7.6v13.5
		c0,1.1,0.4,1.5,1.5,1.5h1.8v2.5H466.6z"/>
	<path class="st0" d="M476.6,277.9v-2.4c3.8-0.3,4.8-3.6,5.1-7h2.3v6.9h4.9v2.5h-4.8v11c0,0.7,0.4,1.2,1.4,1.2
		c1.1,0,1.6-0.6,1.6-2.1v-3.3h2.5v3.1c0,3.9-2.2,5.6-5.1,5.6c-2.8,0-4.8-1.2-4.8-4.1v-11.4H476.6z"/>
	<path class="st0" d="M500.3,291c3,0,4.6-2.3,4.6-6.8c0-4.5-1.6-6.8-4.6-6.8c-3,0-4.6,2.4-4.6,6.8C495.7,288.6,497.3,291,500.3,291
		 M500.3,274.9c5.6,0,9.6,3.4,9.6,9.3c0,5.9-4,9.3-9.6,9.3c-5.6,0-9.6-3.4-9.6-9.3C490.7,278.2,494.7,274.9,500.3,274.9"/>
	<path class="st0" d="M514,286.1c0.4,1.6,1.1,2.9,2.2,3.7c1.1,0.8,2.5,1.2,4.1,1.2c1.3,0,2.9-0.7,2.9-2.2c0-3.6-11.7-1.6-11.7-8.2
		c0-3.7,3.5-5.6,6.8-5.6c2,0,3.9,0.7,5.5,1.8l0.8-1.3h2v6.2h-2.4c-0.4-1.4-1.1-2.4-2-3.1c-0.9-0.7-2.1-1-3.5-1c-1.2,0-2.8,0.5-2.8,2
		c0,2.9,11.7,1.5,11.7,8.4c0,3.9-3.3,5.5-6.8,5.5c-2.2,0-4.5-0.4-6.2-1.9l-0.8,1.3h-2.5v-6.8H514z"/>
	<g>
		<polygon class="st0" points="147.1,64.5 147.1,145.6 127.2,145.6 127.2,64.5 110.2,64.5 110.2,44.4 164.1,44.4 164.1,64.5 		"/>
		<path class="st0" d="M221.2,62.7c-17.9,0-32.5,14.5-32.5,32.3c0,17.9,14.6,32.3,32.5,32.3s32.3-14.5,32.3-32.3
			C253.6,77.2,239.1,62.7,221.2,62.7 M221.2,147.7c-29.1,0-52.7-23.5-52.7-52.6c0-29.1,23.6-52.7,52.7-52.7
			c29.1,0,52.6,23.6,52.6,52.7C273.8,124.2,250.3,147.7,221.2,147.7"/>
		<path class="st0" d="M311.1,64.5h-5.5v34.9h5.5c9.6,0,17.4-7.8,17.4-17.4C328.6,72.3,320.7,64.5,311.1,64.5 M334.6,148.4
			l-28.9-28.9v26.1h-20.1V44.4h25.5c20.7,0,37.5,16.8,37.5,37.5c0,14-8,26.9-20.4,33.4l20.5,19L334.6,148.4z"/>
		<polygon class="st0" points="395.9,64.5 395.9,145.6 376,145.6 376,64.5 359,64.5 359,44.4 412.9,44.4 412.9,64.5 		"/>
		<rect x="428.4" y="44.4" class="st0" width="20.1" height="101.2"/>
		<polygon class="st0" points="466.9,145.6 466.9,44.4 487,44.4 487,125.5 520.8,125.5 520.8,145.6 		"/>
		<polygon class="st0" points="534.9,145.6 534.9,44.4 554.9,44.4 554.9,125.5 588.8,125.5 588.8,145.6 		"/>
		<path class="st0" d="M635,96.6l-11.4,29.8h22.7L635,96.6z M653.6,145.6l-6-15.8l-12.4,15.6l-12.7-15.9l-6.1,16.1H595l40-104.3
			l40,104.3H653.6z"/>
		<polygon class="st0" points="7.9,174.1 7.9,7.9 777.3,7.9 777.3,174.1 785.2,166.2 785.2,0 0,0 0,166.2 		"/>
		<polygon class="st0" points="777.3,175.9 777.3,236.7 7.9,236.7 7.9,175.9 0,183.8 0,244.6 785.2,244.6 785.2,183.8 		"/>
	</g>
	<path class="st0" d="M392.7,194.1h-0.4c-8.3-8.9-109-16.1-240.8-17.8v0c0,0,0,0,0,0c-0.9,0-1.6-0.7-1.6-1.6c0-0.9,0.7-1.6,1.6-1.6
		c0,0,0,0,0,0h482c0,0,0,0,0,0c0.9,0,1.6,0.7,1.6,1.6c0,0.9-0.7,1.6-1.6,1.6h0v0C501.8,178,401.1,185.2,392.7,194.1h-0.3"/>
</g>
</svg>
